HIERARCHY
ROOT hip
{
	OFFSET 0.000000 0.000000 0.000000 
	CHANNELS 6 Xposition Yposition Zposition Zrotation Xrotation Yrotation
	JOINT abdomen
	{
		OFFSET 0.000000 3.402643 0.000000 
		CHANNELS 3 Zrotation Xrotation Yrotation
		JOINT chest
		{
			OFFSET 0.000000 8.438565 -0.680529 
			CHANNELS 3 Zrotation Xrotation Yrotation
			JOINT neck
			{
				OFFSET 0.000000 10.207942 -0.272212 
				CHANNELS 3 Zrotation Xrotation Yrotation
				JOINT head
				{
					OFFSET 0.000000 3.130431 0.000000 
					CHANNELS 3 Zrotation Xrotation Yrotation
					End Site
					{
						OFFSET 0.000000 3.130435 0.000000 
					}
				}
			}
			JOINT lCollar
			{
				OFFSET 3.470700 6.669187 -0.816635 
				CHANNELS 3 Zrotation Xrotation Yrotation
				JOINT lShldr
				{
					OFFSET 3.198488 0.000000 0.000000 
					CHANNELS 3 Zrotation Xrotation Yrotation
					JOINT lForeArm
					{
						OFFSET 10.139888 0.000000 0.000000 
						CHANNELS 3 Zrotation Xrotation Yrotation
						JOINT lHand
						{
							OFFSET 8.370511 0.000000 0.000000 
							CHANNELS 3 Zrotation Xrotation Yrotation
							End Site
							{
								OFFSET 4.083176 0.000000 0.000000 
							}
						}
					}
				}
			}
			JOINT rCollar
			{
				OFFSET -3.470700 6.669187 -0.816635 
				CHANNELS 3 Zrotation Xrotation Yrotation
				JOINT rShldr
				{
					OFFSET -3.198488 0.000000 0.000000 
					CHANNELS 3 Zrotation Xrotation Yrotation
					JOINT rForeArm
					{
						OFFSET -10.139888 0.000000 0.000000 
						CHANNELS 3 Zrotation Xrotation Yrotation
						JOINT rHand
						{
							OFFSET -8.370511 0.000000 0.000000 
							CHANNELS 3 Zrotation Xrotation Yrotation
							End Site
							{
								OFFSET -4.083176 0.000000 0.000000 
							}
						}
					}
				}
			}
		}
	}
	JOINT lThigh
	{
		OFFSET 5.308129 -1.633274 1.361059 
		CHANNELS 3 Zrotation Xrotation Yrotation
		JOINT lShin
		{
			OFFSET -2.041588 -20.007561 0.000000 
			CHANNELS 3 Zrotation Xrotation Yrotation
			JOINT lFoot
			{
				OFFSET 0.000000 -19.190928 -1.224953 
				CHANNELS 3 Zrotation Xrotation Yrotation
				End Site
				{
					OFFSET 0.000000 -2.449906 4.627600 
				}
			}
		}
	}
	JOINT rThigh
	{
		OFFSET -5.308129 -1.633274 1.361059 
		CHANNELS 3 Zrotation Xrotation Yrotation
		JOINT rShin
		{
			OFFSET 2.041588 -20.007561 0.000000 
			CHANNELS 3 Zrotation Xrotation Yrotation
			JOINT rFoot
			{
				OFFSET 0.000000 -19.190928 -1.224953 
				CHANNELS 3 Zrotation Xrotation Yrotation
				End Site
				{
					OFFSET 0.000000 -2.449906 4.627600 
				}
			}
		}
	}
}
MOTION
Frames: 6
Frame Time: 0.033333
-2.591923 41.669201 -1.311056 1.123148 0.771336 33.559292 -0.000000 -0.000002 -0.000000 -0.166442 4.101545 -4.851376 4.788764 10.588750 -27.336241 -0.954937 -15.993991 -0.145955 -2.000757 -0.069240 1.990978 -69.050072 18.644047 6.020119 5.927345 4.290753 -97.330635 -18.042347 -6.731462 -4.120243 1.990970 -0.069577 -2.000746 43.314003 16.799789 2.621731 -14.021994 -3.878140 106.943428 -9.458028 -53.048710 -14.891089 8.548738 -14.881583 -13.476264 -8.241564 40.355350 3.753476 -6.562671 -25.884417 4.950299 -21.065128 -10.872409 -28.521748 14.445679 36.709858 -2.645013 -2.887461 -18.946451 -0.113908 
-1.583857 40.975952 0.592817 0.625018 -0.429662 23.403124 -0.000000 -0.000002 -0.000000 -0.000001 4.443355 -9.667969 2.219372 9.719402 -11.947128 -0.954937 -15.993991 -0.145955 -2.000757 -0.069240 1.990978 -66.936340 11.947788 -7.956651 5.827382 3.638674 -103.516479 -20.129972 -13.600708 11.468347 1.990970 -0.069577 -2.000746 36.506866 29.921883 19.945944 -14.617376 0.095095 91.609230 -10.748515 -53.356010 -15.939352 12.218823 -10.576885 -2.650674 -9.602434 44.946529 4.637913 -1.858876 -30.640200 3.846303 -20.019348 -16.157425 -16.932159 16.143002 39.624405 -3.688940 -2.411211 -17.310156 -0.652353 
-0.425269 40.545963 2.933678 -0.263848 -2.089822 10.918113 -0.000000 -0.000002 -0.000000 0.146921 4.423813 -15.773027 -0.394909 8.447063 6.884116 -0.954937 -15.993991 -0.145955 -2.000757 -0.069240 1.990978 -63.373531 1.426566 -27.040316 5.943155 4.448061 -95.871246 -26.784559 -19.842201 4.973691 1.990970 -0.069577 -2.000746 24.729519 37.863995 44.005291 -13.928311 4.798239 73.437691 -12.040206 -53.662724 -16.990231 15.415373 -2.222256 10.750732 -10.104149 46.770359 4.976640 4.201228 -33.934074 2.714057 -16.801600 -19.528879 -4.362605 18.613846 43.399590 -5.362239 -1.762117 -18.009514 -0.890662 
0.746979 41.072311 5.418038 -1.565764 -3.699793 -1.966295 -0.000000 -0.000002 -0.000000 0.254589 4.199176 -22.137777 -2.469055 6.897944 25.267004 -0.954937 -15.993991 -0.145955 -2.000757 -0.069240 1.990978 -62.945068 2.648838 -56.528027 5.867769 5.907967 -82.078690 -25.650305 -10.945810 0.895207 1.990970 -0.069577 -2.000746 21.400339 37.961014 62.712376 -12.039680 8.711918 56.642040 -13.359155 -53.928200 -18.060221 14.116118 10.123605 24.243065 -7.706636 39.708241 3.324205 9.372238 -31.762482 1.768176 -11.180231 -21.806152 6.110349 14.897291 37.374687 -2.927784 -1.790451 -16.194460 -3.757212 
1.796030 41.909237 7.752426 -2.989172 -4.837190 -13.318694 -0.000000 -0.000002 -0.000000 0.323054 4.003841 -27.717813 -3.726320 5.203876 39.351486 -0.954937 -15.993991 -0.145955 -2.000757 -0.069240 1.990978 -58.032562 6.469747 -90.251518 5.224821 7.738194 -63.697052 -21.627270 2.132982 -6.625706 1.990970 -0.069577 -2.000746 23.615358 36.448318 76.582863 -9.279902 11.709654 40.774601 -14.696113 -54.199207 -19.151905 9.419507 19.260233 35.680092 -5.582919 33.075596 2.013663 12.006663 -24.168835 1.484743 -5.068461 -18.872255 15.319967 8.826843 24.992109 0.263685 -1.941803 -14.335859 -8.420722 
2.522229 42.351013 9.630013 -4.079838 -5.279633 -20.571356 -0.000000 -0.000002 -0.000000 0.332739 3.740171 -30.998184 -4.572887 4.205367 45.257141 -0.954937 -15.993991 -0.145955 -2.000757 -0.069240 1.990978 -54.900143 7.136035 -106.981239 4.764761 8.456182 -55.568722 -18.953480 8.863791 -11.456983 1.990970 -0.069577 -2.000746 21.939905 36.939617 84.377487 -8.053790 12.612397 34.801796 -16.035152 -54.455627 -20.238995 6.489712 22.393387 40.013607 -5.361017 32.492432 1.890548 11.295541 -13.250278 2.932632 -2.790009 -14.859338 19.922758 5.128175 15.695108 1.564356 0.754564 -7.621217 -9.049698 
